<?xml version="1.0" encoding="UTF-8"?>
<svg version="1.1" xmlns="http://www.w3.org/2000/svg" width="500" height="500">
<path d="M0 0 C0 0.66 0 1.32 0 2 C0.66 2 1.32 2 2 2 C3.49417933 8.32152795 2.79887969 11.3994791 -0.578125 16.921875 C-1.04734375 17.60765625 -1.5165625 18.2934375 -2 19 C-2.51046875 19.74765625 -3.0209375 20.4953125 -3.546875 21.265625 C-4.02640625 21.83796875 -4.5059375 22.4103125 -5 23 C-5.66 23 -6.32 23 -7 23 C-7.2578125 23.56203125 -7.515625 24.1240625 -7.78125 24.703125 C-9.14169777 27.26704579 -10.72788962 29.45226365 -12.5 31.75 C-13.1084375 32.54921875 -13.716875 33.3484375 -14.34375 34.171875 C-14.8903125 34.77515625 -15.436875 35.3784375 -16 36 C-16.66 36 -17.32 36 -18 36 C-18.268125 36.58265625 -18.53625 37.1653125 -18.8125 37.765625 C-20.01480991 40.02786601 -21.33825913 41.80576318 -23 43.75 C-23.515625 44.36359375 -24.03125 44.9771875 -24.5625 45.609375 C-26 47 -26 47 -28 47 C-28.24065186 47.56372314 -28.48130371 48.12744629 -28.72924805 48.70825195 C-31.42589617 53.57154416 -35.90555721 57.28696646 -39.8125 61.1875 C-40.28476013 61.66021332 -40.75702026 62.13292664 -41.24359131 62.6199646 C-59.6757392 81 -59.6757392 81 -67 81 C-67 81.66 -67 82.32 -67 83 C-101.16936191 99.01688839 -138.61127942 95.15209249 -174.5 86.875 C-188.69357749 83.62309809 -199.43985536 82.89007926 -212.4609375 90.3359375 C-215.38377592 92.25152083 -217.8572068 94.37616797 -220.26953125 96.8984375 C-223.05126258 98.66920101 -224.74153053 98.46321497 -228 98 C-230.70427787 96.15609779 -232.8852302 93.86040346 -235.1484375 91.5078125 C-236.13452499 90.5161055 -236.13452499 90.5161055 -237.14053345 89.50436401 C-238.52410169 88.10737246 -239.90046586 86.70321405 -241.27001953 85.29248047 C-243.37421223 83.12581116 -245.49916458 80.98137637 -247.62890625 78.83984375 C-248.97000888 77.48040742 -250.30989605 76.11977072 -251.6484375 74.7578125 C-252.28582855 74.11192169 -252.9232196 73.46603088 -253.57992554 72.80056763 C-258 68.234375 -258 68.234375 -258 66 C-258.66 66 -259.32 66 -260 66 C-260 65.34 -260 64.68 -260 64 C-260.66 64 -261.32 64 -262 64 C-263.60861731 62.28975524 -265.13938343 60.50561171 -266.625 58.6875 C-267.44226563 57.70136719 -268.25953125 56.71523438 -269.1015625 55.69921875 C-271 53 -271 53 -271 50 C-270.34 50 -269.68 50 -269 50 C-269 49.34 -269 48.68 -269 48 C-267.56719535 46.76712158 -266.12835485 45.54018388 -264.65234375 44.359375 C-261.45626519 41.72997704 -258.65276414 38.69006495 -255.8125 35.6875 C-254 34 -254 34 -252 34 C-252 33.34 -252 32.68 -252 32 C-249.58010391 29.41774667 -246.72324376 27.25251162 -244 25 C-243.44763672 24.53674316 -242.89527344 24.07348633 -242.32617188 23.59619141 C-228.10197305 11.70049546 -214.88811809 3.1186354 -195.55859375 3.65234375 C-183.8621182 4.79502907 -172.68101022 8.31145346 -161.54882812 11.91943359 C-156.06238974 13.69171255 -150.71938162 15.18669344 -145 16 C-143.95070313 16.17144531 -142.90140625 16.34289062 -141.8203125 16.51953125 C-134.38865612 17.57576871 -127.05109928 18.06787024 -119.55078125 18.20703125 C-118.79723358 18.22236404 -118.04368591 18.23769684 -117.26730347 18.25349426 C-113.42978694 18.32845468 -109.59407431 18.37906116 -105.75585938 18.39477539 C-104.3124906 18.41620558 -102.86913058 18.43823527 -101.42578125 18.4609375 C-99.49859253 18.47326416 -99.49859253 18.47326416 -97.5324707 18.48583984 C-92.47995635 19.22124625 -89.36023217 21.42037554 -86.0625 25.25 C-84.52607117 29.22663931 -85.17943501 31.82879463 -86 36 C-86.33 36.66 -86.66 37.32 -87 38 C-87.66 38 -88.32 38 -89 38 C-89.25523437 38.61488281 -89.51046875 39.22976563 -89.7734375 39.86328125 C-91.84982991 43.48043618 -95.20275443 44.58281371 -99 46 C-117.51157513 49.82998106 -139.30199103 46.71641879 -158 45 C-158.33 46.32 -158.66 47.64 -159 49 C-146.1803529 51.09085651 -133.4799284 51.40430068 -120.51000977 51.42553711 C-117.07171055 51.43746804 -113.6351905 51.48684373 -110.19726562 51.53710938 C-87.77404304 51.70087545 -71.6350312 46.68899842 -53.59301758 33.2512207 C-49.20097398 30 -49.20097398 30 -47 30 C-47 29.34 -47 28.68 -47 28 C-45.44406999 26.63066121 -43.82702659 25.33055343 -42.1875 24.0625 C-37.99870748 20.72648342 -34.2272897 17.29925181 -30.5 13.4375 C-22.07657348 4.84487984 -12.84550641 -4.28183547 0 0 Z " fill="#08954B" transform="translate(375,272)"/>
<path d="M0 0 C1.68359375 1.0390625 1.68359375 1.0390625 3.99609375 2.9140625 C3.99609375 3.5740625 3.99609375 4.2340625 3.99609375 4.9140625 C5.31609375 5.5740625 6.63609375 6.2340625 7.99609375 6.9140625 C7.99609375 7.5740625 7.99609375 8.2340625 7.99609375 8.9140625 C8.65609375 8.9140625 9.31609375 8.9140625 9.99609375 8.9140625 C13.99609375 14.32582721 13.99609375 14.32582721 13.99609375 16.9140625 C14.65609375 16.9140625 15.31609375 16.9140625 15.99609375 16.9140625 C16.65609375 14.9340625 17.31609375 12.9540625 17.99609375 10.9140625 C18.65609375 10.9140625 19.31609375 10.9140625 19.99609375 10.9140625 C20.36734375 10.0478125 20.36734375 10.0478125 20.74609375 9.1640625 C24.2866407 2.79107799 31.20113201 -2.08270089 37.99609375 -4.4609375 C47.89482406 -6.52317298 59.22892855 -6.57899322 67.99609375 -1.0859375 C76.49838508 4.85608253 81.07327167 12.01199231 83.30859375 22.1015625 C85.34397832 34.72486105 82.36701771 45.55797213 74.99609375 55.9140625 C71.97604189 59.36636855 68.74152973 62.55166029 65.43359375 65.7265625 C64.59634766 66.54576172 63.75910156 67.36496094 62.89648438 68.20898438 C61.33986291 69.73109642 59.77912374 71.24901924 58.21264648 72.76098633 C54.25937548 76.60104548 50.38929184 80.52350161 46.51679993 84.44465637 C44.22165496 86.76663506 41.92111063 89.08323409 39.62036133 91.3996582 C38.40537605 92.62479428 37.1921781 93.85170529 35.98071289 95.08032227 C34.22616082 96.85900327 32.46534153 98.63126021 30.703125 100.40234375 C30.16041458 100.95537674 29.61770416 101.50840973 29.05854797 102.07820129 C27.7418177 103.39532603 26.37326375 104.66026868 24.99609375 105.9140625 C24.33609375 105.9140625 23.67609375 105.9140625 22.99609375 105.9140625 C22.99609375 106.5740625 22.99609375 107.2340625 22.99609375 107.9140625 C22.33609375 107.9140625 21.67609375 107.9140625 20.99609375 107.9140625 C20.99609375 108.5740625 20.99609375 109.2340625 20.99609375 109.9140625 C17.38361234 112.32238344 16.25734407 112.63767105 11.99609375 111.9140625 C9.03524388 109.87080935 6.39123915 107.60100226 3.99609375 104.9140625 C3.99609375 104.2540625 3.99609375 103.5940625 3.99609375 102.9140625 C3.33609375 102.9140625 2.67609375 102.9140625 1.99609375 102.9140625 C1.99609375 102.2540625 1.99609375 101.5940625 1.99609375 100.9140625 C1.33609375 100.9140625 0.67609375 100.9140625 -0.00390625 100.9140625 C-0.00390625 100.2540625 -0.00390625 99.5940625 -0.00390625 98.9140625 C-0.66390625 98.9140625 -1.32390625 98.9140625 -2.00390625 98.9140625 C-2.00390625 98.2540625 -2.00390625 97.5940625 -2.00390625 96.9140625 C-2.66390625 96.9140625 -3.32390625 96.9140625 -4.00390625 96.9140625 C-4.00390625 96.2540625 -4.00390625 95.5940625 -4.00390625 94.9140625 C-4.64328125 94.6459375 -5.28265625 94.3778125 -5.94140625 94.1015625 C-8.00390625 92.9140625 -8.00390625 92.9140625 -9.00390625 89.9140625 C-9.66390625 89.9140625 -10.32390625 89.9140625 -11.00390625 89.9140625 C-11.00390625 89.2540625 -11.00390625 88.5940625 -11.00390625 87.9140625 C-11.66390625 87.9140625 -12.32390625 87.9140625 -13.00390625 87.9140625 C-13.00390625 87.2540625 -13.00390625 86.5940625 -13.00390625 85.9140625 C-13.66390625 85.9140625 -14.32390625 85.9140625 -15.00390625 85.9140625 C-15.00390625 85.2540625 -15.00390625 84.5940625 -15.00390625 83.9140625 C-15.66390625 83.9140625 -16.32390625 83.9140625 -17.00390625 83.9140625 C-17.00390625 83.2540625 -17.00390625 82.5940625 -17.00390625 81.9140625 C-17.88925049 81.51876343 -17.88925049 81.51876343 -18.79248047 81.11547852 C-21.09551152 79.86429549 -22.56752067 78.56601272 -24.38671875 76.69140625 C-25.30130859 75.76038086 -25.30130859 75.76038086 -26.234375 74.81054688 C-26.85957031 74.16408203 -27.48476562 73.51761719 -28.12890625 72.8515625 C-29.37926699 71.5668232 -30.63177141 70.28416569 -31.88671875 69.00390625 C-32.43730957 68.43534912 -32.98790039 67.86679199 -33.55517578 67.28100586 C-34.97804637 65.80676345 -34.97804637 65.80676345 -37.00390625 64.9140625 C-37.00390625 64.2540625 -37.00390625 63.5940625 -37.00390625 62.9140625 C-37.66390625 62.9140625 -38.32390625 62.9140625 -39.00390625 62.9140625 C-39.00390625 62.2540625 -39.00390625 61.5940625 -39.00390625 60.9140625 C-39.66390625 60.9140625 -40.32390625 60.9140625 -41.00390625 60.9140625 C-41.00390625 60.2540625 -41.00390625 59.5940625 -41.00390625 58.9140625 C-41.66390625 58.9140625 -42.32390625 58.9140625 -43.00390625 58.9140625 C-51.04158334 50.14388775 -54.85561741 38.77718365 -54.38671875 26.9609375 C-53.11400828 16.83120107 -49.93806431 7.67630425 -41.828125 1.16796875 C-28.96710491 -7.84555289 -13.53116371 -7.33267741 0 0 Z " fill="#F7732A" transform="translate(246.00390625,99.0859375)"/>
<path d="M0 0 C67.32 0 134.64 0 204 0 C204 14.69249596 197.93738327 31.15338053 189 43 C188.34 43 187.68 43 187 43 C186.8040625 43.68320312 186.608125 44.36640625 186.40625 45.0703125 C184.47117516 49.10171841 181.67484042 51.77204907 178.5 54.875 C177.55495605 55.80699219 177.55495605 55.80699219 176.59082031 56.7578125 C171.74950893 61.44883381 166.75790967 65.47339851 161 69 C160.12214844 69.55300781 159.24429688 70.10601562 158.33984375 70.67578125 C148.09128878 77 148.09128878 77 143 77 C143.33 76.236875 143.66 75.47375 144 74.6875 C145.69248388 68.4464657 146.17865637 62.49331154 143.375 56.5625 C137.59623005 50.32751137 132.32257584 48.88774689 124.1328125 48.5703125 C122.518854 48.49896274 120.90492256 48.42699888 119.29101562 48.35449219 C118.44708252 48.31755249 117.60314941 48.28061279 116.73364258 48.24255371 C92.89787985 47.16843862 71.15148823 44.13737186 48.27050781 37.16870117 C47.3884668 36.90033447 46.50642578 36.63196777 45.59765625 36.35546875 C44.8075415 36.11207764 44.01742676 35.86868652 43.20336914 35.61791992 C32.52998084 32.62464061 20.86522297 33.80225889 10 35 C4.68343762 25.17984472 -0.56118111 15.22842976 -2 4 C-1.34 2.68 -0.68 1.36 0 0 Z " fill="#08944B" transform="translate(149,237)"/>
<path d="M0 0 C3.95218287 5.74862964 5.46126321 12.59336736 7.25024414 19.27148438 C7.77813979 21.19702824 8.38311741 23.10109272 9 25 C9.66 25.33 10.32 25.66 11 26 C11.928125 25.525625 12.85625 25.05125 13.8125 24.5625 C19.81816634 21.84864241 27.22398377 21.83860699 33.4765625 23.76171875 C37.24518786 25.54722852 40.37024448 27.71280561 43 31 C43 31.66 43 32.32 43 33 C43.66 33 44.32 33 45 33 C45 33.66 45 34.32 45 35 C45.66 35 46.32 35 47 35 C48.37280273 36.58886719 48.37280273 36.58886719 49.93359375 38.796875 C50.50013672 39.5909375 51.06667969 40.385 51.65039062 41.203125 C52.24013672 42.04359375 52.82988281 42.8840625 53.4375 43.75 C54.60268877 45.39074987 55.76804773 47.03137889 56.93359375 48.671875 C57.7078772 49.77160645 57.7078772 49.77160645 58.49780273 50.89355469 C59.51738171 52.32325197 60.58463543 53.71988879 61.69165039 55.08300781 C63 57 63 57 63 60 C39.9 60 16.8 60 -7 60 C-5.875 47.625 -5.875 47.625 -3.9375 43.3125 C-3.57527344 42.48363281 -3.21304688 41.65476563 -2.83984375 40.80078125 C-2.56269531 40.20652344 -2.28554687 39.61226562 -2 39 C-3.03898437 38.75765625 -4.07796875 38.5153125 -5.1484375 38.265625 C-28.13927264 32.79109105 -28.13927264 32.79109105 -32 27 C-32.5 24.5 -32.5 24.5 -32 22 C-30.10294088 19.47058784 -28.77282661 18.23758745 -25.73828125 17.3046875 C-22.44405028 16.93813969 -20.0655434 17.50339792 -16.875 18.375 C-15.84117187 18.65085938 -14.80734375 18.92671875 -13.7421875 19.2109375 C-11.81555125 19.76532571 -9.90193223 20.36602259 -8 21 C-8.28875 20.43152344 -8.5775 19.86304688 -8.875 19.27734375 C-11.60280552 13.60388712 -13.28522923 8.96279013 -11.25 2.6875 C-8.21807786 -1.40559489 -4.63991401 -1.73996776 0 0 Z " fill="#F6732A" transform="translate(179,174)"/>
<path d="M0 0 C3.91999695 5.70181375 5.43876072 12.48071173 7.25024414 19.09570312 C8.18629975 22.47964107 9.03584875 25.05377312 11 28 C10.46890625 28.29132813 9.9378125 28.58265625 9.390625 28.8828125 C4.53369441 31.70125032 1.7408131 34.08937654 -1 39 C-7.22240598 37.99783365 -13.27312156 36.46651489 -19.3125 34.6875 C-19.99376953 34.49905518 -20.67503906 34.31061035 -21.37695312 34.11645508 C-26.0867662 32.6825555 -28.87502248 30.79037197 -32 27 C-32.5625 24.4375 -32.5625 24.4375 -32 22 C-30.10294088 19.47058784 -28.77282661 18.23758745 -25.73828125 17.3046875 C-22.44405028 16.93813969 -20.0655434 17.50339792 -16.875 18.375 C-15.84117187 18.65085938 -14.80734375 18.92671875 -13.7421875 19.2109375 C-11.81555125 19.76532571 -9.90193223 20.36602259 -8 21 C-8.28875 20.43152344 -8.5775 19.86304688 -8.875 19.27734375 C-11.60280552 13.60388712 -13.28522923 8.96279013 -11.25 2.6875 C-8.21807786 -1.40559489 -4.63991401 -1.73996776 0 0 Z " fill="#098F50" transform="translate(179,174)"/>
<path d="M0 0 C0.78792777 0.00582568 1.57585554 0.01165137 2.38765991 0.01765358 C3.22241344 0.01594473 4.05716697 0.01423589 4.91721606 0.01247525 C7.73027489 0.00916606 10.54309818 0.02020746 13.35613525 0.03111184 C15.36625686 0.03167564 17.37637887 0.03135999 19.38650024 0.03022683 C24.8573175 0.02965112 30.32804773 0.04144067 35.7988447 0.05537474 C41.51104216 0.06784581 47.22324145 0.06904973 52.93545043 0.07142556 C63.75852276 0.07765101 74.58155486 0.0940762 85.40460944 0.11412454 C97.72364195 0.13645045 110.04267633 0.14746863 122.36172402 0.15751541 C147.708679 0.17844153 173.05559823 0.21363814 198.40252197 0.25816262 C198.47411412 5.64529856 198.24105987 9.7612724 196.52752197 14.94566262 C196.17947509 16.02202981 195.83142822 17.09839699 195.47283447 18.20738137 C194.51933259 20.92520971 193.49924916 23.59538803 192.40252197 26.25816262 C190.91534506 22.39150266 192.0623595 20.0552896 193.40252197 16.25816262 C193.77783643 13.93121298 194.12169399 11.59839577 194.40252197 9.25816262 C195.06252197 9.25816262 195.72252197 9.25816262 196.40252197 9.25816262 C196.40252197 6.94816262 196.40252197 4.63816262 196.40252197 2.25816262 C129.74252197 2.25816262 63.08252197 2.25816262 -5.59747803 2.25816262 C-3.67538477 9.49919288 -3.67538477 9.49919288 -1.40997803 16.63316262 C-0.57743604 19.32291368 -0.43292834 21.46081787 -0.59747803 24.25816262 C-4.8505671 17.87852901 -7.14651908 9.91158026 -7.59747803 2.25816262 C-5.05940466 -0.27991076 -3.46112425 0.0192872 0 0 Z " fill="#137D6D" transform="translate(154.59747803211212,236.7418373823166)"/>
<path d="M0 0 C2.0625 0.4375 2.0625 0.4375 4 1 C3.814375 1.94875 3.62875 2.8975 3.4375 3.875 C2.71313368 6.89868793 2.71313368 6.89868793 4 9 C5.98 8.67 7.96 8.34 10 8 C10 8.99 10 9.98 10 11 C10.99 11.33 11.98 11.66 13 12 C11.75976392 15.72070823 10.04269852 16.62521091 7 19 C6.34 19.99 5.68 20.98 5 22 C0.93828305 22.71677358 -2.25934624 21.2712615 -5.96484375 19.7890625 C-8.91613231 18.64480091 -11.9538119 17.85507034 -15 17 C-18.00888093 16.02597124 -21.00587729 15.01840909 -24 14 C-25.31690141 7.65492958 -25.31690141 7.65492958 -24.0625 5.0625 C-20.74491303 3.35344005 -17.69558797 3.81824977 -14 4 C-14 4.66 -14 5.32 -14 6 C-11.69 6 -9.38 6 -7 6 C-7 6.66 -7 7.32 -7 8 C-5.02 7.67 -3.04 7.34 -1 7 C-1.020625 6.030625 -1.04125 5.06125 -1.0625 4.0625 C-1 1 -1 1 0 0 Z " fill="#09954B" transform="translate(174,189)"/>
<path d="M0 0 C0.66 0.33 1.32 0.66 2 1 C1.2884375 1.495 1.2884375 1.495 0.5625 2 C-1.85791615 5.09813267 -1.68198917 8.12026792 -2 12 C-2.66 12 -3.32 12 -4 12 C-4.144375 12.763125 -4.28875 13.52625 -4.4375 14.3125 C-5 17 -5 17 -6 20 C-6.99 20 -7.98 20 -9 20 C-9 22.64 -9 25.28 -9 28 C10.14 28 29.28 28 49 28 C48.505 25.03 48.505 25.03 48 22 C47.34 22 46.68 22 46 22 C46.33 20.68 46.66 19.36 47 18 C46.34 18 45.68 18 45 18 C45 16.35 45 14.7 45 13 C44.34 13 43.68 13 43 13 C43 11.68 43 10.36 43 9 C42.34 9 41.68 9 41 9 C41.33 7.68 41.66 6.36 42 5 C42.37809814 5.52432617 42.75619629 6.04865234 43.14575195 6.58886719 C44.86761352 8.97619142 46.59005109 11.3630995 48.3125 13.75 C48.90740234 14.575 49.50230469 15.4 50.11523438 16.25 C50.69208984 17.04921875 51.26894531 17.8484375 51.86328125 18.671875 C52.39219971 19.4050293 52.92111816 20.13818359 53.46606445 20.89355469 C54.50408484 22.31899475 55.58267281 23.71561312 56.69604492 25.08300781 C58 27 58 27 58 30 C34.9 30 11.8 30 -12 30 C-10.89480276 17.84283034 -8.68039968 8.68039968 0 0 Z " fill="#BB6E4E" transform="translate(184,204)"/>
<path d="M0 0 C5.15944873 -0.09920549 10.31833689 -0.17162646 15.47851562 -0.21972656 C17.23219479 -0.2397871 18.98580753 -0.26704251 20.73925781 -0.30175781 C23.26644318 -0.35052302 25.79274091 -0.37302392 28.3203125 -0.390625 C29.09867462 -0.41127014 29.87703674 -0.43191528 30.6789856 -0.45318604 C35.923721 -0.45532642 38.81746863 0.56748893 43 4 C45.03845899 6.3672427 46.00653396 7.86962528 45.98828125 11.02734375 C45.67453798 13.87160654 45.28732178 16.42535643 44 19 C43.34 19 42.68 19 42 19 C41.61714844 19.92232422 41.61714844 19.92232422 41.2265625 20.86328125 C39.15017009 24.48043618 35.79724557 25.58281371 32 27 C13.90757015 30.74326135 -8.99986066 28.62112178 -27 25 C-27 24.67 -27 24.34 -27 24 C-24.75006641 23.97292861 -22.50003905 23.95357171 -20.25 23.9375 C-18.99703125 23.92589844 -17.7440625 23.91429687 -16.453125 23.90234375 C-13 24 -13 24 -11.03057861 24.49900818 C-7.51603613 25.36612902 -3.89714708 25.12058122 -0.296875 25.09765625 C0.54091492 25.0962413 1.37870483 25.09482635 2.24188232 25.09336853 C4.91129157 25.08778197 7.5806162 25.07523194 10.25 25.0625 C12.06249879 25.05748326 13.87499889 25.05292066 15.6875 25.04882812 C20.12503248 25.03781694 24.56250191 25.02056155 29 25 C29.495 23.515 29.495 23.515 30 22 C30.7425 21.855625 31.485 21.71125 32.25 21.5625 C33.1575 21.376875 34.065 21.19125 35 21 C35.7425 20.87625 36.485 20.7525 37.25 20.625 C37.8275 20.41875 38.405 20.2125 39 20 C39.495 18.515 39.495 18.515 40 17 C39.34 17 38.68 17 38 17 C38 16.34 38 15.68 38 15 C39.65 15.33 41.3 15.66 43 16 C42.938125 14.783125 42.87625 13.56625 42.8125 12.3125 C42.76029297 11.28576172 42.76029297 11.28576172 42.70703125 10.23828125 C41.61405459 6.77819491 39.80170402 5.26954714 37 3 C34.14398524 2.56051133 31.90946543 2.40980013 29.07421875 2.51171875 C28.32662796 2.51879349 27.57903717 2.52586823 26.80879211 2.53315735 C24.43398598 2.56102355 22.06158649 2.62373868 19.6875 2.6875 C18.07229982 2.71259332 16.45706246 2.73540469 14.84179688 2.75585938 C10.89361181 2.81082353 6.94721311 2.89703473 3 3 C3 2.34 3 1.68 3 1 C2.01 0.67 1.02 0.34 0 0 Z " fill="#0F7767" transform="translate(244,291)"/>
<path d="M0 0 C1.89919594 0.51028901 3.79151825 1.04594319 5.68359375 1.58203125 C8.67594686 2.0101824 11.67272172 2.31718603 14.68359375 2.58203125 C14.68359375 3.24203125 14.68359375 3.90203125 14.68359375 4.58203125 C15.39386719 4.57042969 16.10414063 4.55882812 16.8359375 4.546875 C17.75503906 4.53785156 18.67414063 4.52882813 19.62109375 4.51953125 C20.99587891 4.50212891 20.99587891 4.50212891 22.3984375 4.484375 C24.68359375 4.58203125 24.68359375 4.58203125 25.68359375 5.58203125 C28.75199763 5.87359904 31.82121087 6.03074162 34.8984375 6.203125 C37.85910656 6.49949744 40.50179906 6.95788073 43.38671875 7.60546875 C49.11328715 8.79843614 54.66484951 8.84446981 60.49609375 8.76953125 C61.55054688 8.76236084 62.605 8.75519043 63.69140625 8.74780273 C73.77381656 8.64290713 83.69172944 7.95346361 93.68359375 6.58203125 C93.68359375 5.92203125 93.68359375 5.26203125 93.68359375 4.58203125 C95.59704702 4.04951359 97.51452325 3.53143642 99.43359375 3.01953125 C100.5009375 2.72949219 101.56828125 2.43945312 102.66796875 2.140625 C105.61569304 1.59460871 106.90128808 1.76046363 109.68359375 2.58203125 C90.63510238 9.53658952 90.63510238 9.53658952 83.68359375 10.58203125 C82.98234375 10.69160156 82.28109375 10.80117188 81.55859375 10.9140625 C55.90728914 14.16380548 28.8905846 9.72873402 3.91845703 3.93115234 C-3.48680132 2.24415072 -10.72385603 1.52827868 -18.31640625 1.58203125 C-13.13092975 -1.87495308 -6.02378305 -1.08692207 0 0 Z " fill="#0F7567" transform="translate(194.31640625,354.41796875)"/>
<path d="M0 0 C0.495 0.99 0.495 0.99 1 2 C1.66 2.33 2.32 2.66 3 3 C-6 12 -6 12 -8.27197266 14.26757812 C-10.68188706 16.68137462 -13.08256079 19.1037428 -15.47929382 21.53059387 C-17.77443879 23.85257256 -20.07498312 26.16917159 -22.37573242 28.4855957 C-23.5907177 29.71073178 -24.80391565 30.93764279 -26.01538086 32.16625977 C-27.76993293 33.94494077 -29.53075222 35.71719771 -31.29296875 37.48828125 C-31.83567917 38.04131424 -32.37838959 38.59434723 -32.93754578 39.16413879 C-34.25427605 40.48126353 -35.62283 41.74620618 -37 43 C-37.66 43 -38.32 43 -39 43 C-39 43.66 -39 44.32 -39 45 C-39.66 45 -40.32 45 -41 45 C-41 45.66 -41 46.32 -41 47 C-44.45029042 49.30019361 -45.94554358 49.43132515 -50 49 C-50.66 48.01 -51.32 47.02 -52 46 C-49.36 46 -46.72 46 -44 46 C-44 43.69 -44 41.38 -44 39 C-41.6875 38.375 -41.6875 38.375 -39 38 C-38.01 38.66 -37.02 39.32 -36 40 C-36 38.35 -36 36.7 -36 35 C-35.2575 34.9175 -34.515 34.835 -33.75 34.75 C-30.43668651 33.84636905 -29.11884168 32.66817101 -27 30 C-27 29.01 -27 28.02 -27 27 C-25.68 27 -24.36 27 -23 27 C-23 25.02 -23 23.04 -23 21 C-19.91190305 19.23537317 -18.76687864 19 -15 19 C-15.495 17.515 -15.495 17.515 -16 16 C-14.5625 12.8125 -14.5625 12.8125 -13 10 C-12.01 10 -11.02 10 -10 10 C-10 10.66 -10 11.32 -10 12 C-9.34 12 -8.68 12 -8 12 C-8.66 9.69 -9.32 7.38 -10 5 C-9.34 4.67 -8.68 4.34 -8 4 C-8 4.99 -8 5.98 -8 7 C-6.68 7 -5.36 7 -4 7 C-4.495 5.02 -4.495 5.02 -5 3 C-4.01 2.34 -3.02 1.68 -2 1 C-2 1.66 -2 2.32 -2 3 C-1.34 3 -0.68 3 0 3 C0 2.01 0 1.02 0 0 Z " fill="#D06E3E" transform="translate(308,162)"/>
<path d="M0 0 C2 3 2 3 3 6 C3.66 6 4.32 6 5 6 C5.98248524 10.0527516 6.08159574 13.83861737 6 18 C4.02 18 2.04 18 0 18 C0 17.34 0 16.68 0 16 C-2.31 16 -4.62 16 -7 16 C-7 15.34 -7 14.68 -7 14 C-12.58500567 14.19898708 -12.58500567 14.19898708 -17 17 C-17.16677282 20.58343976 -17.16677282 20.58343976 -17 24 C-16.1646875 24.16435547 -16.1646875 24.16435547 -15.3125 24.33203125 C-10.66000927 25.29868051 -6.3319833 26.53091097 -1.9140625 28.2734375 C2.27771252 29.86460108 6.6440773 30.95457855 11 32 C11 32.66 11 33.32 11 34 C4.77759402 32.99783365 -1.27312156 31.46651489 -7.3125 29.6875 C-7.99376953 29.49905518 -8.67503906 29.31061035 -9.37695312 29.11645508 C-14.0867662 27.6825555 -16.87502248 25.79037197 -20 22 C-20.5625 19.4375 -20.5625 19.4375 -20 17 C-18.10294088 14.47058784 -16.77282661 13.23758745 -13.73828125 12.3046875 C-10.44405028 11.93813969 -8.0655434 12.50339792 -4.875 13.375 C-3.84117187 13.65085938 -2.80734375 13.92671875 -1.7421875 14.2109375 C0.18444875 14.76532571 2.09806777 15.36602259 4 16 C3.566875 15.14728516 3.566875 15.14728516 3.125 14.27734375 C0.69032739 9.21356288 -0.47778636 5.61398967 0 0 Z " fill="#107066" transform="translate(167,179)"/>
<path d="M0 0 C0 0.33 0 0.66 0 1 C-1.10287354 0.98428955 -1.10287354 0.98428955 -2.22802734 0.96826172 C-5.61031576 0.92628202 -8.99254907 0.9005417 -12.375 0.875 C-14.10943359 0.84986328 -14.10943359 0.84986328 -15.87890625 0.82421875 C-28.95139077 0.656483 -28.95139077 0.656483 -40.6875 5.75 C-41.4196875 6.27464844 -42.151875 6.79929687 -42.90625 7.33984375 C-44.9091674 8.92797788 -46.79762716 10.59254994 -48.6875 12.3125 C-51.64652284 14.96041062 -53.95411695 15.80263985 -58 16 C-42.60375522 -0.93586926 -21.68730938 -4.86769269 0 0 Z " fill="#0D7364" transform="translate(194,278)"/>
<path d="M0 0 C0 0.66 0 1.32 0 2 C-0.99 2.33 -1.98 2.66 -3 3 C-4.22520264 6.00847418 -4.22520264 6.00847418 -5 9 C-6.65 9.33 -8.3 9.66 -10 10 C-10.33 11.98 -10.66 13.96 -11 16 C-11.99 16 -12.98 16 -14 16 C-14 16.99 -14 17.98 -14 19 C-14.66 19 -15.32 19 -16 19 C-16.17521771 34.02844956 -16.17521771 34.02844956 -15 49 C-19.56176835 42.15734748 -19.77445573 33.98657476 -19 26 C-16.97297896 16.03765229 -13.4844594 8.16300495 -5.25 2 C-2 0 -2 0 0 0 Z " fill="#AB6350" transform="translate(211,97)"/>
<path d="M0 0 C0.99 0.33 1.98 0.66 3 1 C2.67 2.32 2.34 3.64 2 5 C15.63027641 7.06942535 29.23723571 7.62382918 43 8.125 C45.23960766 8.21161287 47.47919134 8.29884808 49.71875 8.38671875 C55.14557824 8.59831009 60.57265028 8.8022607 66 9 C66 9.33 66 9.66 66 10 C59.95345349 10.02493184 53.90693767 10.04296863 47.86035156 10.05493164 C45.80826292 10.05992495 43.75617777 10.06672191 41.70410156 10.07543945 C13.31330282 10.19292815 13.31330282 10.19292815 3.25 7.4375 C2.24453125 7.16808594 1.2390625 6.89867187 0.203125 6.62109375 C-0.52390625 6.41613281 -1.2509375 6.21117187 -2 6 C-1.34 4.02 -0.68 2.04 0 0 Z " fill="#0F7568" transform="translate(214,316)"/>
<path d="M0 0 C2.88716662 1.72131287 5.32294286 3.60680358 7.4375 6.25 C7.4375 6.91 7.4375 7.57 7.4375 8.25 C8.0975 8.25 8.7575 8.25 9.4375 8.25 C9.1075 8.91 8.7775 9.57 8.4375 10.25 C7.7775 9.92 7.1175 9.59 6.4375 9.25 C6.4375 8.59 6.4375 7.93 6.4375 7.25 C1.9825 7.745 1.9825 7.745 -2.5625 8.25 C-2.5625 7.26 -2.5625 6.27 -2.5625 5.25 C-3.2225 5.25 -3.8825 5.25 -4.5625 5.25 C-4.5625 3.6 -4.5625 1.95 -4.5625 0.25 C-6.77107055 0.39219564 -8.97934987 0.53891847 -11.1875 0.6875 C-12.41726562 0.76871094 -13.64703125 0.84992188 -14.9140625 0.93359375 C-18.17782388 1.21663944 -21.34193859 1.66038953 -24.5625 2.25 C-18.5720711 -3.7404289 -7.29871859 -3.48472654 0 0 Z " fill="#BC684A" transform="translate(214.5625,198.75)"/>
<path d="M0 0 C6.99555218 6.35959289 12.42639106 13.55834638 14 23 C12.02 23 10.04 23 8 23 C7.67 21.02 7.34 19.04 7 17 C6.34 17 5.68 17 5 17 C5.33 15.68 5.66 14.36 6 13 C5.34 13 4.68 13 4 13 C4 11.35 4 9.7 4 8 C3.34 8 2.68 8 2 8 C2 6.68 2 5.36 2 4 C1.34 4 0.68 4 0 4 C0 2.68 0 1.36 0 0 Z " fill="#DF713A" transform="translate(225,209)"/>
<path d="M0 0 C0.33 0 0.66 0 1 0 C2.77443542 13.25481883 1.17128679 24.14126778 -7 35 C-9.52138669 37.83540555 -12.11350189 40.53373193 -15 43 C-15.33 43 -15.66 43 -16 43 C-16 41.35 -16 39.7 -16 38 C-13.525 37.505 -13.525 37.505 -11 37 C-11.33 35.68 -11.66 34.36 -12 33 C-10.515 32.505 -10.515 32.505 -9 32 C-9 31.34 -9 30.68 -9 30 C-7.68 30 -6.36 30 -5 30 C-5 28.35 -5 26.7 -5 25 C-4.34 24.67 -3.68 24.34 -3 24 C-0.4621097 16.38632911 -0.43462154 7.93756183 0 0 Z " fill="#A66056" transform="translate(328,120)"/>
<path d="M0 0 C0.45375 0.495 0.9075 0.99 1.375 1.5 C2.87635519 3.22609337 2.87635519 3.22609337 5 3 C3.50328459 7.49014624 1.16631659 11.47848764 -2 15 C-2.66 15 -3.32 15 -4 15 C-4.226875 15.53625 -4.45375 16.0725 -4.6875 16.625 C-6.43382056 19.78500863 -8.6402849 22.2676983 -11 25 C-11.33 24.01 -11.66 23.02 -12 22 C-11.34 21.46375 -10.68 20.9275 -10 20.375 C-7.68975201 18.10041408 -7.68975201 18.10041408 -7.75 14.75 C-7.8325 13.8425 -7.915 12.935 -8 12 C-7.34 12 -6.68 12 -6 12 C-6 11.34 -6 10.68 -6 10 C-5.34 10 -4.68 10 -4 10 C-4 10.66 -4 11.32 -4 12 C-3.34 12 -2.68 12 -2 12 C-2.020625 11.05125 -2.04125 10.1025 -2.0625 9.125 C-2 6 -2 6 -1 4 C-1.66 3.67 -2.32 3.34 -3 3 C-2.01 2.01 -1.02 1.02 0 0 Z " fill="#0C835B" transform="translate(372,280)"/>
<path d="M0 0 C3 1 3 1 5 4 C5.66796875 6.375 5.66796875 6.375 6.1875 9 C6.36667969 9.86625 6.54585938 10.7325 6.73046875 11.625 C7 14 7 14 6 17 C6.5775 16.67 7.155 16.34 7.75 16 C10 15 10 15 14 15 C14 14.34 14 13.68 14 13 C15.32 13.33 16.64 13.66 18 14 C16.44038638 14.96302356 14.87716775 15.92021004 13.3125 16.875 C12.00732422 17.67550781 12.00732422 17.67550781 10.67578125 18.4921875 C7.04473668 20.53829437 4.20230146 22 0 22 C0.33 21.236875 0.66 20.47375 1 19.6875 C2.82931707 12.94189332 2.92149029 6.41104814 0 0 Z " fill="#0C8160" transform="translate(292,292)"/>
<path d="M0 0 C0.66 0.33 1.32 0.66 2 1 C0.04761147 3.00612399 -1.91137822 5.00492433 -3.875 7 C-4.43058594 7.57234375 -4.98617188 8.1446875 -5.55859375 8.734375 C-7.00134404 10.19450782 -8.4974374 11.60149298 -10 13 C-10.66 13 -11.32 13 -12 13 C-12 13.66 -12 14.32 -12 15 C-12.66 15 -13.32 15 -14 15 C-14 15.66 -14 16.32 -14 17 C-17.45029042 19.30019361 -18.94554358 19.43132515 -23 19 C-23.66 18.01 -24.32 17.02 -25 16 C-22.36 16 -19.72 16 -17 16 C-17 13.69 -17 11.38 -17 9 C-14.6875 8.375 -14.6875 8.375 -12 8 C-11.01 8.66 -10.02 9.32 -9 10 C-9 8.35 -9 6.7 -9 5 C-8.2575 4.9175 -7.515 4.835 -6.75 4.75 C-3.48778646 3.8603054 -2.19045122 2.51496251 0 0 Z " fill="#C96D48" transform="translate(281,192)"/>
<path d="M0 0 C0.67289063 0.12181641 1.34578125 0.24363281 2.0390625 0.36914062 C6.45056759 1.19097507 10.7023957 2.26986121 15 3.5625 C15 4.2225 15 4.8825 15 5.5625 C16.98 5.5625 18.96 5.5625 21 5.5625 C21.495 7.0475 21.495 7.0475 22 8.5625 C16.76125142 7.47862098 11.72889808 6.16795151 6.625 4.5625 C-2.1038303 1.99744899 -10.96050289 1.29491128 -20 0.5625 C-20 -0.0975 -20 -0.7575 -20 -1.4375 C-13.33526191 -3.25515584 -6.65217084 -1.24250317 0 0 Z " fill="#0F7366" transform="translate(191,269.4375)"/>
<path d="M0 0 C1.65 0 3.3 0 5 0 C5 0.66 5 1.32 5 2 C1.52952147 5.40001196 -1.62183723 7.8523397 -6.5 8.375 C-7.325 8.25125 -8.15 8.1275 -9 8 C-9.33 8.66 -9.66 9.32 -10 10 C-11.32 9.34 -12.64 8.68 -14 8 C-12.12050295 4.42895561 -10.82946843 2.45255699 -7 1 C-7 1.66 -7 2.32 -7 3 C-4.69 3 -2.38 3 0 3 C0 2.01 0 1.02 0 0 Z " fill="#09904C" transform="translate(315,297)"/>
<path d="M0 0 C0.66 0.33 1.32 0.66 2 1 C-1.51658768 5.77251185 -1.51658768 5.77251185 -4.125 7 C-6.27958105 7.88140262 -6.27958105 7.88140262 -6.9375 10.5625 C-7.288125 11.366875 -7.63875 12.17125 -8 13 C-10.625 13.8125 -10.625 13.8125 -13 14 C-13 13.34 -13 12.68 -13 12 C-13.55429687 12.3609375 -14.10859375 12.721875 -14.6796875 13.09375 C-15.40414063 13.5578125 -16.12859375 14.021875 -16.875 14.5 C-17.59429687 14.9640625 -18.31359375 15.428125 -19.0546875 15.90625 C-21 17 -21 17 -23 17 C-23 16.34 -23 15.68 -23 15 C-22.09378906 14.50371094 -21.18757813 14.00742187 -20.25390625 13.49609375 C-13.04052237 9.491962 -6.3228633 5.35268851 0 0 Z " fill="#0A8F46" transform="translate(326,302)"/>
<path d="M0 0 C0.74701172 -0.01224609 1.49402344 -0.02449219 2.26367188 -0.03710938 C6.80272437 -0.04906474 10.41249142 0.46798145 14.6875 2.1875 C14.6875 2.5175 14.6875 2.8475 14.6875 3.1875 C12.9584226 3.21475341 11.22921824 3.23400987 9.5 3.25 C8.05560547 3.26740234 8.05560547 3.26740234 6.58203125 3.28515625 C3.6875 3.1875 3.6875 3.1875 0.88671875 2.62109375 C0.16097656 2.47800781 -0.56476563 2.33492188 -1.3125 2.1875 C-1.6425 2.5175 -1.9725 2.8475 -2.3125 3.1875 C-4.82739516 3.47143978 -7.34239582 3.6356124 -9.8671875 3.80859375 C-12.56318778 4.0507494 -12.56318778 4.0507494 -15.3125 6.1875 C-17.5 5.8125 -17.5 5.8125 -19.3125 5.1875 C-18.042947 4.53915346 -16.77180294 3.89392185 -15.5 3.25 C-14.79230469 2.89035156 -14.08460938 2.53070313 -13.35546875 2.16015625 C-8.89535915 0.03670063 -4.8397404 0.00411193 0 0 Z " fill="#C9714C" transform="translate(295.3125,93.8125)"/>
<path d="M0 0 C0 0.66 0 1.32 0 2 C0.66 2 1.32 2 2 2 C2.33 4.64 2.66 7.28 3 10 C2.731875 9.401875 2.46375 8.80375 2.1875 8.1875 C1.1106021 5.95672092 1.1106021 5.95672092 -0.625 4.375 C-1.07875 3.92125 -1.5325 3.4675 -2 3 C-2 2.34 -2 1.68 -2 1 C-5.3 1 -8.6 1 -12 1 C-12 1.66 -12 2.32 -12 3 C-12.721875 3.2475 -13.44375 3.495 -14.1875 3.75 C-18.54726687 5.68767416 -21.3581595 8.03723926 -24 12 C-25.32 11.67 -26.64 11.34 -28 11 C-10.99747984 -3.66582661 -10.99747984 -3.66582661 0 0 Z " fill="#0E7369" transform="translate(375,272)"/>
<path d="M0 0 C0.66 0.33 1.32 0.66 2 1 C1.2884375 1.495 1.2884375 1.495 0.5625 2 C-1.85791615 5.09813267 -1.68198917 8.12026792 -2 12 C-2.66 12 -3.32 12 -4 12 C-4.144375 12.763125 -4.28875 13.52625 -4.4375 14.3125 C-5 17 -5 17 -6 20 C-6.99 19.67 -7.98 19.34 -9 19 C-7.50165555 10.99568623 -5.8778579 5.74723883 0 0 Z " fill="#EF762F" transform="translate(184,204)"/>
<path d="M0 0 C0.33 0.99 0.66 1.98 1 3 C0.38125 3.0825 -0.2375 3.165 -0.875 3.25 C-3.15354435 3.79278299 -3.15354435 3.79278299 -4.0625 5.875 C-4.371875 6.57625 -4.68125 7.2775 -5 8 C-6.5 9.75 -6.5 9.75 -8 11 C-8.66 11 -9.32 11 -10 11 C-8.70418164 16.06547178 -6.69602895 18.39874102 -3 22 C-2.1875 24.3125 -2.1875 24.3125 -2 26 C-2.66 26 -3.32 26 -4 26 C-5.60861731 24.28975524 -7.13938343 22.50561171 -8.625 20.6875 C-9.44226563 19.70136719 -10.25953125 18.71523438 -11.1015625 17.69921875 C-13 15 -13 15 -13 12 C-12.34 12 -11.68 12 -11 12 C-11 11.34 -11 10.68 -11 10 C-9.5727568 8.77190702 -8.13961383 7.54951959 -6.66796875 6.375 C-4.27552687 4.40277625 -2.15937284 2.22288381 0 0 Z " fill="#0F7066" transform="translate(117,310)"/>
<path d="M0 0 C1.47968023 2.95936046 0.84835797 4.86760134 0 8 C-1.875 9.1875 -1.875 9.1875 -4 10 C-5.70921589 11.5412312 -5.70921589 11.5412312 -7 13 C-7.99 12.67 -8.98 12.34 -10 12 C-11.25 9.0625 -11.25 9.0625 -12 6 C-11.67 5.34 -11.34 4.68 -11 4 C-8 7.75 -8 7.75 -8 10 C-7.34 10 -6.68 10 -6 10 C-5.34 8.02 -4.68 6.04 -4 4 C-3.34 4 -2.68 4 -2 4 C-1.34 2.68 -0.68 1.36 0 0 Z " fill="#C06B45" transform="translate(268,106)"/>
<path d="M0 0 C-3.27762534 1.09254178 -4.05614666 0.89338555 -7.25 0 C-11.53292164 -1.03120104 -14.62683521 -0.74121437 -19 0 C-23.00140643 0.09575154 -26.99814114 0.05914077 -31 0 C-22.40704756 -5.72863496 -9.07528412 -3.88940748 0 0 Z " fill="#BB6C4F" transform="translate(242,97)"/>
<path d="M0 0 C-0.99 0 -1.98 0 -3 0 C-3.33 0.99 -3.66 1.98 -4 3 C-5.32 3 -6.64 3 -8 3 C-7.67 4.32 -7.34 5.64 -7 7 C-8.65 7.33 -10.3 7.66 -12 8 C-12 7.34 -12 6.68 -12 6 C-13.98 5.34 -15.96 4.68 -18 4 C-15.07089056 2.04726038 -12.91867709 1.24603637 -9.5625 0.3125 C-8.61503906 0.04050781 -7.66757812 -0.23148437 -6.69140625 -0.51171875 C-4.01081763 -0.99803744 -2.53712417 -0.89369149 0 0 Z " fill="#0D8461" transform="translate(302,320)"/>
<path d="M0 0 C6.24041738 1.75511739 11.21605224 6.16969827 14.625 11.578125 C18 18.13636364 18 18.13636364 18 22 C17.34 22 16.68 22 16 22 C15.731875 20.948125 15.46375 19.89625 15.1875 18.8125 C13.64045269 13.84566389 12.3606165 10.90707767 8 8 C8 7.34 8 6.68 8 6 C6.02 5.34 4.04 4.68 2 4 C2 3.34 2 2.68 2 2 C1.01 1.67 0.02 1.34 -1 1 C-0.67 0.67 -0.34 0.34 0 0 Z " fill="#A56554" transform="translate(310,97)"/>
<path d="M0 0 C0.66 0 1.32 0 2 0 C0.25513149 4.21602746 -1.81044571 5.37152486 -5.82421875 7.25 C-9.04244499 8.35933472 -11.62456199 8.2812865 -15 8 C-14.360625 7.731875 -13.72125 7.46375 -13.0625 7.1875 C-10.66868314 6.11332248 -10.66868314 6.11332248 -10 3 C-9.2575 2.855625 -8.515 2.71125 -7.75 2.5625 C-3.54104514 1.9850722 -3.54104514 1.9850722 0 0 Z " fill="#0D795E" transform="translate(284,310)"/>
<path d="M0 0 C0.99 0.495 0.99 0.495 2 1 C2.91570265 3.78819717 3.7370548 6.54516688 4.5 9.375 C4.92224853 10.92580368 5.34916288 12.47534623 5.78125 14.0234375 C5.96751953 14.71356934 6.15378906 15.40370117 6.34570312 16.11474609 C7.01253827 18.29097137 7.01253827 18.29097137 9 21 C7.02 21.99 7.02 21.99 5 23 C4.89042969 22.38253906 4.78085938 21.76507813 4.66796875 21.12890625 C3.68951011 15.90250523 2.44363041 10.99231526 0.5859375 6.0078125 C0 4 0 4 0 0 Z " fill="#0E7666" transform="translate(181,181)"/>
<path d="M0 0 C0.66 0.33 1.32 0.66 2 1 C1.24172908 2.17487036 0.46792245 3.33972592 -0.3125 4.5 C-0.74175781 5.1496875 -1.17101562 5.799375 -1.61328125 6.46875 C-2.07089844 6.9740625 -2.52851563 7.479375 -3 8 C-3.99 8 -4.98 8 -6 8 C-6.33 9.65 -6.66 11.3 -7 13 C-9.31 13.33 -11.62 13.66 -14 14 C-12.625 12 -12.625 12 -11 10 C-10.34 10 -9.68 10 -9 10 C-9 9.34 -9 8.68 -9 8 C-7.28515625 6.30859375 -7.28515625 6.30859375 -5.0625 4.4375 C-4.33160156 3.81746094 -3.60070312 3.19742187 -2.84765625 2.55859375 C-1.93306641 1.78708984 -1.93306641 1.78708984 -1 1 C-0.67 0.67 -0.34 0.34 0 0 Z " fill="#107162" transform="translate(132,296)"/>
<path d="M0 0 C6.95171674 6.76877682 6.95171674 6.76877682 7.125 11.1875 C7.08375 12.115625 7.0425 13.04375 7 14 C7.66 14 8.32 14 9 14 C9 14.99 9 15.98 9 17 C7.68 17 6.36 17 5 17 C5.33 15.68 5.66 14.36 6 13 C5.34 13 4.68 13 4 13 C4 11.35 4 9.7 4 8 C3.34 8 2.68 8 2 8 C2 6.68 2 5.36 2 4 C1.34 4 0.68 4 0 4 C0 2.68 0 1.36 0 0 Z " fill="#F37530" transform="translate(225,209)"/>
<path d="M0 0 C1.32 0 2.64 0 4 0 C2.65843409 4.01064992 0.97314977 6.38703716 -2.0625 9.3125 C-2.77535156 10.00988281 -3.48820312 10.70726562 -4.22265625 11.42578125 C-6 13 -6 13 -7 13 C-7 11.35 -7 9.7 -7 8 C-5.35 7.67 -3.7 7.34 -2 7 C-2.33 5.68 -2.66 4.36 -3 3 C-2.01 2.67 -1.02 2.34 0 2 C0 1.34 0 0.68 0 0 Z " fill="#C76E49" transform="translate(319,150)"/>
<path d="M0 0 C1.32 0.33 2.64 0.66 4 1 C2.44038638 1.96302356 0.87716775 2.92021004 -0.6875 3.875 C-1.55761719 4.40867187 -2.42773438 4.94234375 -3.32421875 5.4921875 C-6.95526332 7.53829437 -9.79769854 9 -14 9 C-13.34 7.02 -12.68 5.04 -12 3 C-11.34 3.33 -10.68 3.66 -10 4 C-10 4.66 -10 5.32 -10 6 C-9.0925 5.34 -8.185 4.68 -7.25 4 C-4 2 -4 2 0 2 C0 1.34 0 0.68 0 0 Z " fill="#0F6960" transform="translate(306,305)"/>
<path d="M0 0 C0.99 0.33 1.98 0.66 3 1 C-2.72881356 6.69491525 -2.72881356 6.69491525 -7.125 7.75 C-11.32399074 6.65461111 -12.5210121 4.49974762 -15 1 C-12.03 1.495 -12.03 1.495 -9 2 C-9 2.99 -9 3.98 -9 5 C-6.03 4.01 -3.06 3.02 0 2 C0 1.34 0 0.68 0 0 Z " fill="#0B7367" transform="translate(157,363)"/>
<path d="M0 0 C2.9719385 1.12451727 5.33440687 2.22293791 8 4 C8 4.66 8 5.32 8 6 C9.32 6.66 10.64 7.32 12 8 C12 8.66 12 9.32 12 10 C12.66 10 13.32 10 14 10 C13.67 10.66 13.34 11.32 13 12 C12.21625 11.360625 11.4325 10.72125 10.625 10.0625 C8.20460719 8.01857687 8.20460719 8.01857687 6 7 C6 6.34 6 5.68 6 5 C3.03 4.505 3.03 4.505 0 4 C0 2.68 0 1.36 0 0 Z " fill="#BC6D4F" transform="translate(242,98)"/>
<path d="M0 0 C0.99 0.33 1.98 0.66 3 1 C3 2.32 3 3.64 3 5 C2.01 5 1.02 5 0 5 C0.350625 5.598125 0.70125 6.19625 1.0625 6.8125 C2 9 2 9 1 12 C0.67 11.01 0.34 10.02 0 9 C-0.66 9 -1.32 9 -2 9 C-2.12375 8.030625 -2.2475 7.06125 -2.375 6.0625 C-2.58125 5.051875 -2.7875 4.04125 -3 3 C-3.66 2.67 -4.32 2.34 -5 2 C-4.01 2 -3.02 2 -2 2 C-2 2.66 -2 3.32 -2 4 C-1.34 4 -0.68 4 0 4 C0 2.68 0 1.36 0 0 Z " fill="#0C8655" transform="translate(117,329)"/>
<path d="M0 0 C1.7015625 0.2784375 1.7015625 0.2784375 3.4375 0.5625 C4.283125 0.706875 5.12875 0.85125 6 1 C6 1.33 6 1.66 6 2 C0.06 2 -5.88 2 -12 2 C-12 1.34 -12 0.68 -12 0 C-7.71389466 -1.16893782 -4.34882919 -0.76295249 0 0 Z " fill="#0E845E" transform="translate(183,268)"/>
<path d="M0 0 C1.32 0.33 2.64 0.66 4 1 C4 1.66 4 2.32 4 3 C4.66 3 5.32 3 6 3 C6 3.66 6 4.32 6 5 C6.78375 5.268125 7.5675 5.53625 8.375 5.8125 C11 7 11 7 13 10 C12.67 10.99 12.34 11.98 12 13 C9.99698146 11.0238076 7.99750133 9.04425526 6 7.0625 C5.42765625 6.49853516 4.8553125 5.93457031 4.265625 5.35351562 C2.82474495 3.92121224 1.41012857 2.46258871 0 1 C0 0.67 0 0.34 0 0 Z " fill="#AE6851" transform="translate(213,166)"/>
<path d="M0 0 C1.65 0 3.3 0 5 0 C3.54718935 5.32697239 -0.08111378 8.36402802 -4 12 C-4.33 10.68 -4.66 9.36 -5 8 C-4.01 8 -3.02 8 -2 8 C-2 7.01 -2 6.02 -2 5 C-1.34 4.67 -0.68 4.34 0 4 C0 2.68 0 1.36 0 0 Z " fill="#0F7B62" transform="translate(331,280)"/>
<path d="M0 0 C0.66 0 1.32 0 2 0 C2.17273438 0.56589844 2.34546875 1.13179688 2.5234375 1.71484375 C3.4634348 4.16832295 4.30226023 5.98233439 6 8 C9.34851879 9.01295318 12.51788789 9.10632403 16 9 C16 9.33 16 9.66 16 10 C10.555 10.495 10.555 10.495 5 11 C0 2.25 0 2.25 0 0 Z " fill="#116C6C" transform="translate(154,261)"/>
<path d="M0 0 C1.98 0 3.96 0 6 0 C6 0.99 6 1.98 6 3 C6.66 3.33 7.32 3.66 8 4 C8.625 6.5625 8.625 6.5625 9 9 C7.0625 8.1875 7.0625 8.1875 5 7 C4.67 6.01 4.34 5.02 4 4 C3.34 4 2.68 4 2 4 C2 3.34 2 2.68 2 2 C1.34 2 0.68 2 0 2 C0 1.34 0 0.68 0 0 Z " fill="#BA6C4A" transform="translate(233,185)"/>
<path d="M0 0 C0 0.33 0 0.66 0 1 C-0.56847656 1.18175781 -1.13695312 1.36351562 -1.72265625 1.55078125 C-6.60701003 3.14084634 -11.31029027 4.90459778 -16 7 C-15.67 6.01 -15.34 5.02 -15 4 C-14.34 4 -13.68 4 -13 4 C-13 3.34 -13 2.68 -13 2 C-8.50343896 -0.24828052 -4.92127034 -0.16682272 0 0 Z " fill="#0E7162" transform="translate(176,356)"/>
<path d="M0 0 C0 0.99 0 1.98 0 3 C-2.5546875 4.82421875 -2.5546875 4.82421875 -5.875 6.6875 C-6.96554687 7.31011719 -8.05609375 7.93273437 -9.1796875 8.57421875 C-12 10 -12 10 -14 10 C-14 9.34 -14 8.68 -14 8 C-9.38 5.36 -4.76 2.72 0 0 Z " fill="#0E7468" transform="translate(317,309)"/>
<path d="M0 0 C2 3 2 3 3 6 C3.66 6 4.32 6 5 6 C5.625 8.375 5.625 8.375 6 11 C5.34 11.66 4.68 12.32 4 13 C4 12.01 4 11.02 4 10 C3.01 10 2.02 10 1 10 C-0.1577506 6.52674819 -0.06866652 3.63932552 0 0 Z " fill="#0E795C" transform="translate(167,179)"/>
<path d="M0 0 C0.99 0.33 1.98 0.66 3 1 C1.58829091 2.29708314 0.17041804 3.58745978 -1.25 4.875 C-2.03890625 5.59429687 -2.8278125 6.31359375 -3.640625 7.0546875 C-5.72026168 8.76935483 -7.54419267 9.92980873 -10 11 C-10 10.01 -10 9.02 -10 8 C-9.01 8 -8.02 8 -7 8 C-7 7.34 -7 6.68 -7 6 C-5.35 5.34 -3.7 4.68 -2 4 C-2 3.34 -2 2.68 -2 2 C-1.34 2 -0.68 2 0 2 C0 1.34 0 0.68 0 0 Z " fill="#0E6F63" transform="translate(327,337)"/>
<path d="M0 0 C0.66 0.33 1.32 0.66 2 1 C-1.3 4.3 -4.6 7.6 -8 11 C-8.66 9.68 -9.32 8.36 -10 7 C-9.01 6.67 -8.02 6.34 -7 6 C-6.67 5.34 -6.34 4.68 -6 4 C-4.35178756 2.96986723 -2.68496298 1.96885372 -1 1 C-0.67 0.67 -0.34 0.34 0 0 Z " fill="#127C66" transform="translate(339,326)"/>
<path d="M0 0 C1.65 0 3.3 0 5 0 C5 0.66 5 1.32 5 2 C3.5390625 3.2890625 3.5390625 3.2890625 1.625 4.625 C0.99851562 5.07101562 0.37203125 5.51703125 -0.2734375 5.9765625 C-2 7 -2 7 -4 7 C-4 6.34 -4 5.68 -4 5 C-4.99 5 -5.98 5 -7 5 C-7 4.34 -7 3.68 -7 3 C-4.69 3 -2.38 3 0 3 C0 2.01 0 1.02 0 0 Z " fill="#0E7E61" transform="translate(315,297)"/>
<path d="M0 0 C2.125 0.375 2.125 0.375 4 1 C0.50912907 5.0042343 -1.64951939 6.62671065 -7 7 C-4.66666667 4.66666667 -2.33333333 2.33333333 0 0 Z " fill="#0D8264" transform="translate(143,287)"/>
<path d="M0 0 C0.66 0.33 1.32 0.66 2 1 C0.625 3 0.625 3 -1 5 C-1.66 5 -2.32 5 -3 5 C-3.2475 5.598125 -3.495 6.19625 -3.75 6.8125 C-5.16370012 9.28647521 -6.65055383 10.43370255 -9 12 C-8.6875 10.125 -8.6875 10.125 -8 8 C-7.01 7.34 -6.02 6.68 -5 6 C-4.67 5.01 -4.34 4.02 -4 3 C-1.9375 1.3125 -1.9375 1.3125 0 0 Z " fill="#10776D" transform="translate(350,314)"/>
<path d="M0 0 C0.99 0 1.98 0 3 0 C1.43358249 4.30764815 -0.68336156 8.06171464 -3 12 C-3.66 12 -4.32 12 -5 12 C-4.67 11.443125 -4.34 10.88625 -4 10.3125 C-2.8690399 7.69715478 -2.84337026 5.8193354 -3 3 C-2.01 3.33 -1.02 3.66 0 4 C0 2.68 0 1.36 0 0 Z " fill="#0D7265" transform="translate(341,268)"/>
<path d="M0 0 C-4.625 4 -4.625 4 -8 4 C-8 4.66 -8 5.32 -8 6 C-9.32 6.33 -10.64 6.66 -12 7 C-11.67 6.01 -11.34 5.02 -11 4 C-9.35 3.67 -7.7 3.34 -6 3 C-6 2.01 -6 1.02 -6 0 C-2.25 -1.125 -2.25 -1.125 0 0 Z " fill="#10796B" transform="translate(316,349)"/>
<path d="M0 0 C0.66 0.33 1.32 0.66 2 1 C1.54625 1.37125 1.0925 1.7425 0.625 2.125 C-1.47029394 4.54264685 -2.12013285 6.95430602 -3 10 C-4.32 9.67 -5.64 9.34 -7 9 C-6.02180976 7.68677212 -5.0424189 6.37443848 -4.0625 5.0625 C-3.51722656 4.33160156 -2.97195312 3.60070312 -2.41015625 2.84765625 C-1 1 -1 1 0 0 Z " fill="#8D7D3C" transform="translate(184,204)"/>
<path d="M0 0 C0.99 0 1.98 0 3 0 C3.33 0.66 3.66 1.32 4 2 C4.99 2.33 5.98 2.66 7 3 C7.33 4.65 7.66 6.3 8 8 C7.34 8 6.68 8 6 8 C6 7.34 6 6.68 6 6 C5.34 6 4.68 6 4 6 C4 5.34 4 4.68 4 4 C3.34 4 2.68 4 2 4 C2 3.34 2 2.68 2 2 C1.34 2 0.68 2 0 2 C0 1.34 0 0.68 0 0 Z " fill="#A56150" transform="translate(242,194)"/>
<path d="M0 0 C3.57104439 1.87949705 5.54744301 3.17053157 7 7 C7.66 7 8.32 7 9 7 C8.67 7.66 8.34 8.32 8 9 C7.34 8.67 6.68 8.34 6 8 C6 7.34 6 6.68 6 6 C3.03 5.505 3.03 5.505 0 5 C0 3.33333333 0 1.66666667 0 0 Z " fill="#9E5C51" transform="translate(215,200)"/>
<path d="M0 0 C2.31 0.66 4.62 1.32 7 2 C7 3.65 7 5.3 7 7 C6.34 7 5.68 7 5 7 C5 6.34 5 5.68 5 5 C4.34 5 3.68 5 3 5 C3 4.34 3 3.68 3 3 C2.34 3 1.68 3 1 3 C0.67 2.01 0.34 1.02 0 0 Z " fill="#AD5F4B" transform="translate(202,155)"/>
<path d="M0 0 C0.33 1.32 0.66 2.64 1 4 C-1.3125 5.5625 -1.3125 5.5625 -4 7 C-4.99 6.67 -5.98 6.34 -7 6 C-4.69 4.02 -2.38 2.04 0 0 Z " fill="#0F7561" transform="translate(339,291)"/>
<path d="M0 0 C0.99 0 1.98 0 3 0 C3 0.99 3 1.98 3 3 C3.66 3 4.32 3 5 3 C5.33 4.98 5.66 6.96 6 9 C0.42857143 3.85714286 0.42857143 3.85714286 0 0 Z " fill="#A9694D" transform="translate(196,146)"/>
<path d="M0 0 C0 0.99 0 1.98 0 3 C-0.66 3 -1.32 3 -2 3 C-2 3.99 -2 4.98 -2 6 C-4.31 6 -6.62 6 -9 6 C-8.360625 5.731875 -7.72125 5.46375 -7.0625 5.1875 C-4.66868314 4.11332248 -4.66868314 4.11332248 -4 1 C-2 0 -2 0 0 0 Z " fill="#07875A" transform="translate(278,312)"/>
<path d="M0 0 C0.99 0.66 1.98 1.32 3 2 C1.63016497 5.16115776 1.0109362 5.9927092 -2 8 C-2.125 5.125 -2.125 5.125 -2 2 C-1.34 1.34 -0.68 0.68 0 0 Z " fill="#097C59" transform="translate(354,306)"/>
<path d="M0 0 C3.39417765 3.12621626 5.6062718 5.56541027 7 10 C4.525 9.01 4.525 9.01 2 8 C2 6.68 2 5.36 2 4 C1.34 4 0.68 4 0 4 C0 2.68 0 1.36 0 0 Z " fill="#AD6453" transform="translate(225,209)"/>
<path d="M0 0 C0.66 0 1.32 0 2 0 C2.309375 0.94875 2.61875 1.8975 2.9375 2.875 C3.87394742 5.86080408 3.87394742 5.86080408 5 8 C3.02 8.99 3.02 8.99 1 10 C0.67 6.7 0.34 3.4 0 0 Z " fill="#24775B" transform="translate(185,194)"/>
<path d="M0 0 C1.32 0.33 2.64 0.66 4 1 C3.34 3.97 2.68 6.94 2 10 C0.0044484 6.00889681 -0.19546065 4.30013434 0 0 Z " fill="#EA742F" transform="translate(310,154)"/>
<path d="M0 0 C0.66 0.33 1.32 0.66 2 1 C-1.32307692 5.8 -1.32307692 5.8 -4.75 6.8125 C-5.4925 6.874375 -6.235 6.93625 -7 7 C-7 6.34 -7 5.68 -7 5 C-5.46875 3.7109375 -5.46875 3.7109375 -3.5 2.375 C-2.8503125 1.92898438 -2.200625 1.48296875 -1.53125 1.0234375 C-1.0259375 0.68570312 -0.520625 0.34796875 0 0 Z " fill="#11766B" transform="translate(326,302)"/>
<path d="M0 0 C0.66 0.33 1.32 0.66 2 1 C-0.97 3.97 -3.94 6.94 -7 10 C-7 5.69032084 -4.83274712 4.10253255 -2 1 C-1.34 0.67 -0.68 0.34 0 0 Z " fill="#8A545D" transform="translate(281,192)"/>
<path d="M0 0 C2.97 0.495 2.97 0.495 6 1 C6 1.99 6 2.98 6 4 C7.32 4.33 8.64 4.66 10 5 C7.25 5.3125 7.25 5.3125 4 5 C1.625 2.5 1.625 2.5 0 0 Z " fill="#0F7556" transform="translate(142,364)"/>
<path d="M0 0 C1.32 0.33 2.64 0.66 4 1 C4 1.66 4 2.32 4 3 C4.99 3 5.98 3 7 3 C7.33 4.65 7.66 6.3 8 8 C6.85073734 7.04578192 5.70569459 6.08647955 4.5625 5.125 C3.92441406 4.59132813 3.28632813 4.05765625 2.62890625 3.5078125 C1 2 1 2 0 0 Z " fill="#0C7367" transform="translate(128,350)"/>
<path d="M0 0 C0.33 0.66 0.66 1.32 1 2 C-1.5654594 4.5654594 -3.47686668 4.54046087 -7 5 C-4.53846154 1.18461538 -4.53846154 1.18461538 -1.8125 0.25 C-1.214375 0.1675 -0.61625 0.085 0 0 Z " fill="#0C8064" transform="translate(125,305)"/>
<path d="M0 0 C0.99 0 1.98 0 3 0 C1.95125002 2.62187494 1.35068687 3.79371361 -1.125 5.25 C-1.74375 5.4975 -2.3625 5.745 -3 6 C-3.33 5.01 -3.66 4.02 -4 3 C-2.68 3 -1.36 3 0 3 C0 2.01 0 1.02 0 0 Z " fill="#BC694E" transform="translate(285,186)"/>
<path d="M0 0 C1.98 0.495 1.98 0.495 4 1 C3.67 2.32 3.34 3.64 3 5 C1.68 4.67 0.36 4.34 -1 4 C-0.67 2.68 -0.34 1.36 0 0 Z " fill="#E07236" transform="translate(286,182)"/>
<path d="M0 0 C0 0.66 0 1.32 0 2 C-0.99 2.33 -1.98 2.66 -3 3 C-3.33 3.99 -3.66 4.98 -4 6 C-6.0625 6.6875 -6.0625 6.6875 -8 7 C-4.13157895 0 -4.13157895 0 0 0 Z " fill="#B16559" transform="translate(211,97)"/>
<path d="M0 0 C0.66 0.33 1.32 0.66 2 1 C-0.75 3.0625 -0.75 3.0625 -4 5 C-6.203125 4.62109375 -6.203125 4.62109375 -8 4 C-6.71349294 3.30289269 -5.42059335 2.61757124 -4.125 1.9375 C-3.40570313 1.55464844 -2.68640625 1.17179687 -1.9453125 0.77734375 C-1.30335938 0.52082031 -0.66140625 0.26429687 0 0 Z " fill="#A8615A" transform="translate(284,95)"/>
<path d="M0 0 C1.37562854 1.28965176 2.70766393 2.62689293 4 4 C4 4.66 4 5.32 4 6 C4.66 6.33 5.32 6.66 6 7 C4.35 7 2.7 7 1 7 C0.67 4.69 0.34 2.38 0 0 Z " fill="#AA624C" transform="translate(256,110)"/>
</svg>
